<?xml version="1.0" encoding="UTF-8" ?>
<svg version="1.1" width="32" height="32" xmlns="http://www.w3.org/2000/svg" shape-rendering="crispEdges">
<rect x="1" y="0" width="1" height="1" fill="#7B7B7B" />
<rect x="2" y="0" width="1" height="1" fill="#FFFFFF" />
<rect x="3" y="0" width="1" height="1" fill="#FFFFFF" />
<rect x="4" y="0" width="1" height="1" fill="#FFFFFF" />
<rect x="5" y="0" width="1" height="1" fill="#FFFFFF" />
<rect x="6" y="0" width="1" height="1" fill="#FFFFFF" />
<rect x="7" y="0" width="1" height="1" fill="#FFFFFF" />
<rect x="8" y="0" width="1" height="1" fill="#FFFFFF" />
<rect x="9" y="0" width="1" height="1" fill="#FFFFFF" />
<rect x="10" y="0" width="1" height="1" fill="#FFFFFF" />
<rect x="11" y="0" width="1" height="1" fill="#FFFFFF" />
<rect x="12" y="0" width="1" height="1" fill="#FFFFFF" />
<rect x="13" y="0" width="1" height="1" fill="#FFFFFF" />
<rect x="14" y="0" width="1" height="1" fill="#FFFFFF" />
<rect x="15" y="0" width="1" height="1" fill="#FFFFFF" />
<rect x="16" y="0" width="1" height="1" fill="#FFFFFF" />
<rect x="17" y="0" width="1" height="1" fill="#FFFFFF" />
<rect x="18" y="0" width="1" height="1" fill="#FFFFFF" />
<rect x="19" y="0" width="1" height="1" fill="#FFFFFF" />
<rect x="20" y="0" width="1" height="1" fill="#FFFFFF" />
<rect x="21" y="0" width="1" height="1" fill="#FFFFFF" />
<rect x="22" y="0" width="1" height="1" fill="#FFFFFF" />
<rect x="23" y="0" width="1" height="1" fill="#FFFFFF" />
<rect x="24" y="0" width="1" height="1" fill="#FFFFFF" />
<rect x="25" y="0" width="1" height="1" fill="#FFFFFF" />
<rect x="26" y="0" width="1" height="1" fill="#FFFFFF" />
<rect x="27" y="0" width="1" height="1" fill="#FFFFFF" />
<rect x="28" y="0" width="1" height="1" fill="#FFFFFF" />
<rect x="29" y="0" width="1" height="1" fill="#FFFFFF" />
<rect x="30" y="0" width="1" height="1" fill="#7B7B7B" />
</svg>