<?xml version="1.0" encoding="UTF-8" ?>
<svg version="1.1" width="51" height="25" xmlns="http://www.w3.org/2000/svg" shape-rendering="crispEdges">
<rect x="0" y="0" width="1" height="1" fill="#DFDFDF" />
<rect x="1" y="0" width="1" height="1" fill="#DFDFDF" />
<rect x="2" y="0" width="1" height="1" fill="#DFDFDF" />
<rect x="3" y="0" width="1" height="1" fill="#DFDFDF" />
<rect x="4" y="0" width="1" height="1" fill="#DFDFDF" />
<rect x="5" y="0" width="1" height="1" fill="#DFDFDF" />
<rect x="7" y="0" width="1" height="1" fill="#DFDFDF" />
<rect x="8" y="0" width="1" height="1" fill="#DFDFDF" />
<rect x="14" y="0" width="1" height="1" fill="#DFDFDF" />
<rect x="15" y="0" width="1" height="1" fill="#DFDFDF" />
<rect x="16" y="0" width="1" height="1" fill="#DFDFDF" />
<rect x="17" y="0" width="1" height="1" fill="#DFDFDF" />
<rect x="18" y="0" width="1" height="1" fill="#DFDFDF" />
<rect x="21" y="0" width="1" height="1" fill="#DFDFDF" />
<rect x="22" y="0" width="1" height="1" fill="#DFDFDF" />
<rect x="23" y="0" width="1" height="1" fill="#DFDFDF" />
<rect x="24" y="0" width="1" height="1" fill="#DFDFDF" />
<rect x="25" y="0" width="1" height="1" fill="#DFDFDF" />
<rect x="28" y="0" width="1" height="1" fill="#DFDFDF" />
<rect x="29" y="0" width="1" height="1" fill="#DFDFDF" />
<rect x="31" y="0" width="1" height="1" fill="#DFDFDF" />
<rect x="32" y="0" width="1" height="1" fill="#DFDFDF" />
<rect x="33" y="0" width="1" height="1" fill="#DFDFDF" />
<rect x="34" y="0" width="1" height="1" fill="#DFDFDF" />
<rect x="35" y="0" width="1" height="1" fill="#DFDFDF" />
<rect x="36" y="0" width="1" height="1" fill="#DFDFDF" />
<rect x="39" y="0" width="1" height="1" fill="#DFDFDF" />
<rect x="40" y="0" width="1" height="1" fill="#DFDFDF" />
<rect x="41" y="0" width="1" height="1" fill="#DFDFDF" />
<rect x="42" y="0" width="1" height="1" fill="#DFDFDF" />
<rect x="43" y="0" width="1" height="1" fill="#DFDFDF" />
<rect x="45" y="0" width="1" height="1" fill="#DFDFDF" />
<rect x="46" y="0" width="1" height="1" fill="#DFDFDF" />
<rect x="49" y="0" width="1" height="1" fill="#DFDFDF" />
<rect x="50" y="0" width="1" height="1" fill="#DFDFDF" />
<rect x="0" y="1" width="1" height="1" fill="#DFDFDF" />
<rect x="1" y="1" width="1" height="1" fill="#DFDFDF" />
<rect x="2" y="1" width="1" height="1" fill="#DFDFDF" />
<rect x="3" y="1" width="1" height="1" fill="#DFDFDF" />
<rect x="4" y="1" width="1" height="1" fill="#DFDFDF" />
<rect x="5" y="1" width="1" height="1" fill="#DFDFDF" />
<rect x="7" y="1" width="1" height="1" fill="#DFDFDF" />
<rect x="8" y="1" width="1" height="1" fill="#DFDFDF" />
<rect x="14" y="1" width="1" height="1" fill="#DFDFDF" />
<rect x="15" y="1" width="1" height="1" fill="#DFDFDF" />
<rect x="16" y="1" width="1" height="1" fill="#DFDFDF" />
<rect x="17" y="1" width="1" height="1" fill="#DFDFDF" />
<rect x="18" y="1" width="1" height="1" fill="#DFDFDF" />
<rect x="19" y="1" width="1" height="1" fill="#DFDFDF" />
<rect x="21" y="1" width="1" height="1" fill="#DFDFDF" />
<rect x="22" y="1" width="1" height="1" fill="#DFDFDF" />
<rect x="23" y="1" width="1" height="1" fill="#DFDFDF" />
<rect x="24" y="1" width="1" height="1" fill="#DFDFDF" />
<rect x="25" y="1" width="1" height="1" fill="#DFDFDF" />
<rect x="26" y="1" width="1" height="1" fill="#DFDFDF" />
<rect x="28" y="1" width="1" height="1" fill="#DFDFDF" />
<rect x="29" y="1" width="1" height="1" fill="#DFDFDF" />
<rect x="31" y="1" width="1" height="1" fill="#DFDFDF" />
<rect x="32" y="1" width="1" height="1" fill="#DFDFDF" />
<rect x="33" y="1" width="1" height="1" fill="#DFDFDF" />
<rect x="34" y="1" width="1" height="1" fill="#DFDFDF" />
<rect x="35" y="1" width="1" height="1" fill="#DFDFDF" />
<rect x="36" y="1" width="1" height="1" fill="#DFDFDF" />
<rect x="38" y="1" width="1" height="1" fill="#DFDFDF" />
<rect x="39" y="1" width="1" height="1" fill="#DFDFDF" />
<rect x="40" y="1" width="1" height="1" fill="#DFDFDF" />
<rect x="41" y="1" width="1" height="1" fill="#DFDFDF" />
<rect x="42" y="1" width="1" height="1" fill="#DFDFDF" />
<rect x="43" y="1" width="1" height="1" fill="#DFDFDF" />
<rect x="45" y="1" width="1" height="1" fill="#DFDFDF" />
<rect x="46" y="1" width="1" height="1" fill="#DFDFDF" />
<rect x="49" y="1" width="1" height="1" fill="#DFDFDF" />
<rect x="50" y="1" width="1" height="1" fill="#DFDFDF" />
<rect x="0" y="2" width="1" height="1" fill="#DFDFDF" />
<rect x="1" y="2" width="1" height="1" fill="#DFDFDF" />
<rect x="2" y="2" width="1" height="1" fill="#393939" />
<rect x="3" y="2" width="1" height="1" fill="#393939" />
<rect x="4" y="2" width="1" height="1" fill="#393939" />
<rect x="5" y="2" width="1" height="1" fill="#393939" />
<rect x="7" y="2" width="1" height="1" fill="#DFDFDF" />
<rect x="8" y="2" width="1" height="1" fill="#DFDFDF" />
<rect x="14" y="2" width="1" height="1" fill="#DFDFDF" />
<rect x="15" y="2" width="1" height="1" fill="#DFDFDF" />
<rect x="16" y="2" width="1" height="1" fill="#393939" />
<rect x="17" y="2" width="1" height="1" fill="#393939" />
<rect x="18" y="2" width="1" height="1" fill="#DFDFDF" />
<rect x="19" y="2" width="1" height="1" fill="#DFDFDF" />
<rect x="21" y="2" width="1" height="1" fill="#DFDFDF" />
<rect x="22" y="2" width="1" height="1" fill="#DFDFDF" />
<rect x="23" y="2" width="1" height="1" fill="#393939" />
<rect x="24" y="2" width="1" height="1" fill="#393939" />
<rect x="25" y="2" width="1" height="1" fill="#DFDFDF" />
<rect x="26" y="2" width="1" height="1" fill="#DFDFDF" />
<rect x="28" y="2" width="1" height="1" fill="#393939" />
<rect x="29" y="2" width="1" height="1" fill="#393939" />
<rect x="31" y="2" width="1" height="1" fill="#393939" />
<rect x="32" y="2" width="1" height="1" fill="#393939" />
<rect x="33" y="2" width="1" height="1" fill="#DFDFDF" />
<rect x="34" y="2" width="1" height="1" fill="#DFDFDF" />
<rect x="35" y="2" width="1" height="1" fill="#393939" />
<rect x="36" y="2" width="1" height="1" fill="#393939" />
<rect x="38" y="2" width="1" height="1" fill="#DFDFDF" />
<rect x="39" y="2" width="1" height="1" fill="#DFDFDF" />
<rect x="40" y="2" width="1" height="1" fill="#393939" />
<rect x="41" y="2" width="1" height="1" fill="#393939" />
<rect x="42" y="2" width="1" height="1" fill="#393939" />
<rect x="43" y="2" width="1" height="1" fill="#393939" />
<rect x="45" y="2" width="1" height="1" fill="#DFDFDF" />
<rect x="46" y="2" width="1" height="1" fill="#DFDFDF" />
<rect x="49" y="2" width="1" height="1" fill="#DFDFDF" />
<rect x="50" y="2" width="1" height="1" fill="#DFDFDF" />
<rect x="0" y="3" width="1" height="1" fill="#DFDFDF" />
<rect x="1" y="3" width="1" height="1" fill="#DFDFDF" />
<rect x="7" y="3" width="1" height="1" fill="#DFDFDF" />
<rect x="8" y="3" width="1" height="1" fill="#DFDFDF" />
<rect x="14" y="3" width="1" height="1" fill="#DFDFDF" />
<rect x="15" y="3" width="1" height="1" fill="#DFDFDF" />
<rect x="18" y="3" width="1" height="1" fill="#DFDFDF" />
<rect x="19" y="3" width="1" height="1" fill="#DFDFDF" />
<rect x="21" y="3" width="1" height="1" fill="#DFDFDF" />
<rect x="22" y="3" width="1" height="1" fill="#DFDFDF" />
<rect x="25" y="3" width="1" height="1" fill="#DFDFDF" />
<rect x="26" y="3" width="1" height="1" fill="#DFDFDF" />
<rect x="28" y="3" width="1" height="1" fill="#DFDFDF" />
<rect x="29" y="3" width="1" height="1" fill="#DFDFDF" />
<rect x="33" y="3" width="1" height="1" fill="#DFDFDF" />
<rect x="34" y="3" width="1" height="1" fill="#DFDFDF" />
<rect x="38" y="3" width="1" height="1" fill="#DFDFDF" />
<rect x="39" y="3" width="1" height="1" fill="#DFDFDF" />
<rect x="45" y="3" width="1" height="1" fill="#DFDFDF" />
<rect x="46" y="3" width="1" height="1" fill="#DFDFDF" />
<rect x="49" y="3" width="1" height="1" fill="#DFDFDF" />
<rect x="50" y="3" width="1" height="1" fill="#DFDFDF" />
<rect x="0" y="4" width="1" height="1" fill="#DFDFDF" />
<rect x="1" y="4" width="1" height="1" fill="#DFDFDF" />
<rect x="2" y="4" width="1" height="1" fill="#DFDFDF" />
<rect x="3" y="4" width="1" height="1" fill="#DFDFDF" />
<rect x="4" y="4" width="1" height="1" fill="#DFDFDF" />
<rect x="7" y="4" width="1" height="1" fill="#DFDFDF" />
<rect x="8" y="4" width="1" height="1" fill="#DFDFDF" />
<rect x="14" y="4" width="1" height="1" fill="#DFDFDF" />
<rect x="15" y="4" width="1" height="1" fill="#DFDFDF" />
<rect x="18" y="4" width="1" height="1" fill="#DFDFDF" />
<rect x="19" y="4" width="1" height="1" fill="#DFDFDF" />
<rect x="21" y="4" width="1" height="1" fill="#DFDFDF" />
<rect x="22" y="4" width="1" height="1" fill="#DFDFDF" />
<rect x="23" y="4" width="1" height="1" fill="#DFDFDF" />
<rect x="24" y="4" width="1" height="1" fill="#DFDFDF" />
<rect x="25" y="4" width="1" height="1" fill="#DFDFDF" />
<rect x="26" y="4" width="1" height="1" fill="#DFDFDF" />
<rect x="28" y="4" width="1" height="1" fill="#DFDFDF" />
<rect x="29" y="4" width="1" height="1" fill="#DFDFDF" />
<rect x="33" y="4" width="1" height="1" fill="#DFDFDF" />
<rect x="34" y="4" width="1" height="1" fill="#DFDFDF" />
<rect x="38" y="4" width="1" height="1" fill="#DFDFDF" />
<rect x="39" y="4" width="1" height="1" fill="#DFDFDF" />
<rect x="45" y="4" width="1" height="1" fill="#DFDFDF" />
<rect x="46" y="4" width="1" height="1" fill="#DFDFDF" />
<rect x="47" y="4" width="1" height="1" fill="#DFDFDF" />
<rect x="48" y="4" width="1" height="1" fill="#DFDFDF" />
<rect x="49" y="4" width="1" height="1" fill="#DFDFDF" />
<rect x="50" y="4" width="1" height="1" fill="#DFDFDF" />
<rect x="0" y="5" width="1" height="1" fill="#DFDFDF" />
<rect x="1" y="5" width="1" height="1" fill="#DFDFDF" />
<rect x="2" y="5" width="1" height="1" fill="#DFDFDF" />
<rect x="3" y="5" width="1" height="1" fill="#DFDFDF" />
<rect x="4" y="5" width="1" height="1" fill="#DFDFDF" />
<rect x="7" y="5" width="1" height="1" fill="#DFDFDF" />
<rect x="8" y="5" width="1" height="1" fill="#DFDFDF" />
<rect x="14" y="5" width="1" height="1" fill="#DFDFDF" />
<rect x="15" y="5" width="1" height="1" fill="#DFDFDF" />
<rect x="18" y="5" width="1" height="1" fill="#DFDFDF" />
<rect x="19" y="5" width="1" height="1" fill="#DFDFDF" />
<rect x="21" y="5" width="1" height="1" fill="#DFDFDF" />
<rect x="22" y="5" width="1" height="1" fill="#DFDFDF" />
<rect x="23" y="5" width="1" height="1" fill="#DFDFDF" />
<rect x="24" y="5" width="1" height="1" fill="#DFDFDF" />
<rect x="25" y="5" width="1" height="1" fill="#DFDFDF" />
<rect x="26" y="5" width="1" height="1" fill="#393939" />
<rect x="28" y="5" width="1" height="1" fill="#DFDFDF" />
<rect x="29" y="5" width="1" height="1" fill="#DFDFDF" />
<rect x="33" y="5" width="1" height="1" fill="#DFDFDF" />
<rect x="34" y="5" width="1" height="1" fill="#DFDFDF" />
<rect x="38" y="5" width="1" height="1" fill="#DFDFDF" />
<rect x="39" y="5" width="1" height="1" fill="#DFDFDF" />
<rect x="45" y="5" width="1" height="1" fill="#DFDFDF" />
<rect x="46" y="5" width="1" height="1" fill="#DFDFDF" />
<rect x="47" y="5" width="1" height="1" fill="#DFDFDF" />
<rect x="48" y="5" width="1" height="1" fill="#DFDFDF" />
<rect x="49" y="5" width="1" height="1" fill="#DFDFDF" />
<rect x="50" y="5" width="1" height="1" fill="#DFDFDF" />
<rect x="0" y="6" width="1" height="1" fill="#DFDFDF" />
<rect x="1" y="6" width="1" height="1" fill="#DFDFDF" />
<rect x="2" y="6" width="1" height="1" fill="#393939" />
<rect x="3" y="6" width="1" height="1" fill="#393939" />
<rect x="4" y="6" width="1" height="1" fill="#393939" />
<rect x="7" y="6" width="1" height="1" fill="#DFDFDF" />
<rect x="8" y="6" width="1" height="1" fill="#DFDFDF" />
<rect x="14" y="6" width="1" height="1" fill="#DFDFDF" />
<rect x="15" y="6" width="1" height="1" fill="#DFDFDF" />
<rect x="18" y="6" width="1" height="1" fill="#DFDFDF" />
<rect x="19" y="6" width="1" height="1" fill="#DFDFDF" />
<rect x="21" y="6" width="1" height="1" fill="#DFDFDF" />
<rect x="22" y="6" width="1" height="1" fill="#DFDFDF" />
<rect x="23" y="6" width="1" height="1" fill="#393939" />
<rect x="24" y="6" width="1" height="1" fill="#DFDFDF" />
<rect x="25" y="6" width="1" height="1" fill="#DFDFDF" />
<rect x="28" y="6" width="1" height="1" fill="#DFDFDF" />
<rect x="29" y="6" width="1" height="1" fill="#DFDFDF" />
<rect x="33" y="6" width="1" height="1" fill="#DFDFDF" />
<rect x="34" y="6" width="1" height="1" fill="#DFDFDF" />
<rect x="38" y="6" width="1" height="1" fill="#DFDFDF" />
<rect x="39" y="6" width="1" height="1" fill="#DFDFDF" />
<rect x="45" y="6" width="1" height="1" fill="#DFDFDF" />
<rect x="46" y="6" width="1" height="1" fill="#DFDFDF" />
<rect x="47" y="6" width="1" height="1" fill="#393939" />
<rect x="48" y="6" width="1" height="1" fill="#393939" />
<rect x="49" y="6" width="1" height="1" fill="#DFDFDF" />
<rect x="50" y="6" width="1" height="1" fill="#DFDFDF" />
<rect x="0" y="7" width="1" height="1" fill="#DFDFDF" />
<rect x="1" y="7" width="1" height="1" fill="#DFDFDF" />
<rect x="7" y="7" width="1" height="1" fill="#DFDFDF" />
<rect x="8" y="7" width="1" height="1" fill="#DFDFDF" />
<rect x="14" y="7" width="1" height="1" fill="#DFDFDF" />
<rect x="15" y="7" width="1" height="1" fill="#DFDFDF" />
<rect x="18" y="7" width="1" height="1" fill="#DFDFDF" />
<rect x="19" y="7" width="1" height="1" fill="#DFDFDF" />
<rect x="21" y="7" width="1" height="1" fill="#DFDFDF" />
<rect x="22" y="7" width="1" height="1" fill="#DFDFDF" />
<rect x="24" y="7" width="1" height="1" fill="#393939" />
<rect x="25" y="7" width="1" height="1" fill="#DFDFDF" />
<rect x="26" y="7" width="1" height="1" fill="#DFDFDF" />
<rect x="28" y="7" width="1" height="1" fill="#DFDFDF" />
<rect x="29" y="7" width="1" height="1" fill="#DFDFDF" />
<rect x="33" y="7" width="1" height="1" fill="#DFDFDF" />
<rect x="34" y="7" width="1" height="1" fill="#DFDFDF" />
<rect x="38" y="7" width="1" height="1" fill="#DFDFDF" />
<rect x="39" y="7" width="1" height="1" fill="#DFDFDF" />
<rect x="45" y="7" width="1" height="1" fill="#DFDFDF" />
<rect x="46" y="7" width="1" height="1" fill="#DFDFDF" />
<rect x="49" y="7" width="1" height="1" fill="#DFDFDF" />
<rect x="50" y="7" width="1" height="1" fill="#DFDFDF" />
<rect x="0" y="8" width="1" height="1" fill="#DFDFDF" />
<rect x="1" y="8" width="1" height="1" fill="#DFDFDF" />
<rect x="7" y="8" width="1" height="1" fill="#DFDFDF" />
<rect x="8" y="8" width="1" height="1" fill="#DFDFDF" />
<rect x="14" y="8" width="1" height="1" fill="#DFDFDF" />
<rect x="15" y="8" width="1" height="1" fill="#DFDFDF" />
<rect x="18" y="8" width="1" height="1" fill="#DFDFDF" />
<rect x="19" y="8" width="1" height="1" fill="#DFDFDF" />
<rect x="21" y="8" width="1" height="1" fill="#DFDFDF" />
<rect x="22" y="8" width="1" height="1" fill="#DFDFDF" />
<rect x="25" y="8" width="1" height="1" fill="#DFDFDF" />
<rect x="26" y="8" width="1" height="1" fill="#DFDFDF" />
<rect x="28" y="8" width="1" height="1" fill="#DFDFDF" />
<rect x="29" y="8" width="1" height="1" fill="#DFDFDF" />
<rect x="33" y="8" width="1" height="1" fill="#DFDFDF" />
<rect x="34" y="8" width="1" height="1" fill="#DFDFDF" />
<rect x="38" y="8" width="1" height="1" fill="#DFDFDF" />
<rect x="39" y="8" width="1" height="1" fill="#DFDFDF" />
<rect x="45" y="8" width="1" height="1" fill="#DFDFDF" />
<rect x="46" y="8" width="1" height="1" fill="#DFDFDF" />
<rect x="49" y="8" width="1" height="1" fill="#DFDFDF" />
<rect x="50" y="8" width="1" height="1" fill="#DFDFDF" />
<rect x="0" y="9" width="1" height="1" fill="#DFDFDF" />
<rect x="1" y="9" width="1" height="1" fill="#DFDFDF" />
<rect x="2" y="9" width="1" height="1" fill="#DFDFDF" />
<rect x="3" y="9" width="1" height="1" fill="#DFDFDF" />
<rect x="4" y="9" width="1" height="1" fill="#DFDFDF" />
<rect x="5" y="9" width="1" height="1" fill="#DFDFDF" />
<rect x="7" y="9" width="1" height="1" fill="#DFDFDF" />
<rect x="8" y="9" width="1" height="1" fill="#DFDFDF" />
<rect x="9" y="9" width="1" height="1" fill="#DFDFDF" />
<rect x="10" y="9" width="1" height="1" fill="#DFDFDF" />
<rect x="11" y="9" width="1" height="1" fill="#DFDFDF" />
<rect x="12" y="9" width="1" height="1" fill="#DFDFDF" />
<rect x="14" y="9" width="1" height="1" fill="#DFDFDF" />
<rect x="15" y="9" width="1" height="1" fill="#DFDFDF" />
<rect x="16" y="9" width="1" height="1" fill="#DFDFDF" />
<rect x="17" y="9" width="1" height="1" fill="#DFDFDF" />
<rect x="18" y="9" width="1" height="1" fill="#DFDFDF" />
<rect x="19" y="9" width="1" height="1" fill="#DFDFDF" />
<rect x="21" y="9" width="1" height="1" fill="#DFDFDF" />
<rect x="22" y="9" width="1" height="1" fill="#DFDFDF" />
<rect x="25" y="9" width="1" height="1" fill="#DFDFDF" />
<rect x="26" y="9" width="1" height="1" fill="#DFDFDF" />
<rect x="28" y="9" width="1" height="1" fill="#DFDFDF" />
<rect x="29" y="9" width="1" height="1" fill="#DFDFDF" />
<rect x="33" y="9" width="1" height="1" fill="#DFDFDF" />
<rect x="34" y="9" width="1" height="1" fill="#DFDFDF" />
<rect x="38" y="9" width="1" height="1" fill="#DFDFDF" />
<rect x="39" y="9" width="1" height="1" fill="#DFDFDF" />
<rect x="40" y="9" width="1" height="1" fill="#DFDFDF" />
<rect x="41" y="9" width="1" height="1" fill="#DFDFDF" />
<rect x="42" y="9" width="1" height="1" fill="#DFDFDF" />
<rect x="43" y="9" width="1" height="1" fill="#DFDFDF" />
<rect x="45" y="9" width="1" height="1" fill="#DFDFDF" />
<rect x="46" y="9" width="1" height="1" fill="#DFDFDF" />
<rect x="49" y="9" width="1" height="1" fill="#DFDFDF" />
<rect x="50" y="9" width="1" height="1" fill="#DFDFDF" />
<rect x="0" y="10" width="1" height="1" fill="#DFDFDF" />
<rect x="1" y="10" width="1" height="1" fill="#DFDFDF" />
<rect x="2" y="10" width="1" height="1" fill="#DFDFDF" />
<rect x="3" y="10" width="1" height="1" fill="#DFDFDF" />
<rect x="4" y="10" width="1" height="1" fill="#DFDFDF" />
<rect x="5" y="10" width="1" height="1" fill="#DFDFDF" />
<rect x="7" y="10" width="1" height="1" fill="#DFDFDF" />
<rect x="8" y="10" width="1" height="1" fill="#DFDFDF" />
<rect x="9" y="10" width="1" height="1" fill="#DFDFDF" />
<rect x="10" y="10" width="1" height="1" fill="#DFDFDF" />
<rect x="11" y="10" width="1" height="1" fill="#DFDFDF" />
<rect x="12" y="10" width="1" height="1" fill="#DFDFDF" />
<rect x="14" y="10" width="1" height="1" fill="#DFDFDF" />
<rect x="15" y="10" width="1" height="1" fill="#DFDFDF" />
<rect x="16" y="10" width="1" height="1" fill="#DFDFDF" />
<rect x="17" y="10" width="1" height="1" fill="#DFDFDF" />
<rect x="18" y="10" width="1" height="1" fill="#DFDFDF" />
<rect x="19" y="10" width="1" height="1" fill="#393939" />
<rect x="21" y="10" width="1" height="1" fill="#DFDFDF" />
<rect x="22" y="10" width="1" height="1" fill="#DFDFDF" />
<rect x="25" y="10" width="1" height="1" fill="#DFDFDF" />
<rect x="26" y="10" width="1" height="1" fill="#DFDFDF" />
<rect x="28" y="10" width="1" height="1" fill="#DFDFDF" />
<rect x="29" y="10" width="1" height="1" fill="#DFDFDF" />
<rect x="33" y="10" width="1" height="1" fill="#DFDFDF" />
<rect x="34" y="10" width="1" height="1" fill="#DFDFDF" />
<rect x="38" y="10" width="1" height="1" fill="#393939" />
<rect x="39" y="10" width="1" height="1" fill="#DFDFDF" />
<rect x="40" y="10" width="1" height="1" fill="#DFDFDF" />
<rect x="41" y="10" width="1" height="1" fill="#DFDFDF" />
<rect x="42" y="10" width="1" height="1" fill="#DFDFDF" />
<rect x="43" y="10" width="1" height="1" fill="#DFDFDF" />
<rect x="45" y="10" width="1" height="1" fill="#DFDFDF" />
<rect x="46" y="10" width="1" height="1" fill="#DFDFDF" />
<rect x="49" y="10" width="1" height="1" fill="#DFDFDF" />
<rect x="50" y="10" width="1" height="1" fill="#DFDFDF" />
<rect x="0" y="11" width="1" height="1" fill="#393939" />
<rect x="1" y="11" width="1" height="1" fill="#393939" />
<rect x="2" y="11" width="1" height="1" fill="#393939" />
<rect x="3" y="11" width="1" height="1" fill="#393939" />
<rect x="4" y="11" width="1" height="1" fill="#393939" />
<rect x="5" y="11" width="1" height="1" fill="#393939" />
<rect x="7" y="11" width="1" height="1" fill="#393939" />
<rect x="8" y="11" width="1" height="1" fill="#393939" />
<rect x="9" y="11" width="1" height="1" fill="#393939" />
<rect x="10" y="11" width="1" height="1" fill="#393939" />
<rect x="11" y="11" width="1" height="1" fill="#393939" />
<rect x="12" y="11" width="1" height="1" fill="#393939" />
<rect x="14" y="11" width="1" height="1" fill="#393939" />
<rect x="15" y="11" width="1" height="1" fill="#393939" />
<rect x="16" y="11" width="1" height="1" fill="#393939" />
<rect x="17" y="11" width="1" height="1" fill="#393939" />
<rect x="18" y="11" width="1" height="1" fill="#393939" />
<rect x="21" y="11" width="1" height="1" fill="#393939" />
<rect x="22" y="11" width="1" height="1" fill="#393939" />
<rect x="25" y="11" width="1" height="1" fill="#393939" />
<rect x="26" y="11" width="1" height="1" fill="#393939" />
<rect x="28" y="11" width="1" height="1" fill="#393939" />
<rect x="29" y="11" width="1" height="1" fill="#393939" />
<rect x="33" y="11" width="1" height="1" fill="#393939" />
<rect x="34" y="11" width="1" height="1" fill="#393939" />
<rect x="39" y="11" width="1" height="1" fill="#393939" />
<rect x="40" y="11" width="1" height="1" fill="#393939" />
<rect x="41" y="11" width="1" height="1" fill="#393939" />
<rect x="42" y="11" width="1" height="1" fill="#393939" />
<rect x="43" y="11" width="1" height="1" fill="#393939" />
<rect x="45" y="11" width="1" height="1" fill="#393939" />
<rect x="46" y="11" width="1" height="1" fill="#393939" />
<rect x="49" y="11" width="1" height="1" fill="#393939" />
<rect x="50" y="11" width="1" height="1" fill="#393939" />
<rect x="9" y="13" width="1" height="1" fill="#DFDFDF" />
<rect x="10" y="13" width="1" height="1" fill="#DFDFDF" />
<rect x="11" y="13" width="1" height="1" fill="#DFDFDF" />
<rect x="12" y="13" width="1" height="1" fill="#DFDFDF" />
<rect x="15" y="13" width="1" height="1" fill="#DFDFDF" />
<rect x="16" y="13" width="1" height="1" fill="#DFDFDF" />
<rect x="17" y="13" width="1" height="1" fill="#DFDFDF" />
<rect x="18" y="13" width="1" height="1" fill="#DFDFDF" />
<rect x="19" y="13" width="1" height="1" fill="#DFDFDF" />
<rect x="22" y="13" width="1" height="1" fill="#DFDFDF" />
<rect x="23" y="13" width="1" height="1" fill="#DFDFDF" />
<rect x="24" y="13" width="1" height="1" fill="#DFDFDF" />
<rect x="25" y="13" width="1" height="1" fill="#DFDFDF" />
<rect x="26" y="13" width="1" height="1" fill="#DFDFDF" />
<rect x="27" y="13" width="1" height="1" fill="#DFDFDF" />
<rect x="29" y="13" width="1" height="1" fill="#DFDFDF" />
<rect x="30" y="13" width="1" height="1" fill="#DFDFDF" />
<rect x="33" y="13" width="1" height="1" fill="#DFDFDF" />
<rect x="34" y="13" width="1" height="1" fill="#DFDFDF" />
<rect x="37" y="13" width="1" height="1" fill="#DFDFDF" />
<rect x="38" y="13" width="1" height="1" fill="#DFDFDF" />
<rect x="39" y="13" width="1" height="1" fill="#DFDFDF" />
<rect x="40" y="13" width="1" height="1" fill="#DFDFDF" />
<rect x="8" y="14" width="1" height="1" fill="#DFDFDF" />
<rect x="9" y="14" width="1" height="1" fill="#DFDFDF" />
<rect x="10" y="14" width="1" height="1" fill="#DFDFDF" />
<rect x="11" y="14" width="1" height="1" fill="#DFDFDF" />
<rect x="12" y="14" width="1" height="1" fill="#DFDFDF" />
<rect x="13" y="14" width="1" height="1" fill="#DFDFDF" />
<rect x="15" y="14" width="1" height="1" fill="#DFDFDF" />
<rect x="16" y="14" width="1" height="1" fill="#DFDFDF" />
<rect x="17" y="14" width="1" height="1" fill="#DFDFDF" />
<rect x="18" y="14" width="1" height="1" fill="#DFDFDF" />
<rect x="19" y="14" width="1" height="1" fill="#DFDFDF" />
<rect x="20" y="14" width="1" height="1" fill="#DFDFDF" />
<rect x="22" y="14" width="1" height="1" fill="#DFDFDF" />
<rect x="23" y="14" width="1" height="1" fill="#DFDFDF" />
<rect x="24" y="14" width="1" height="1" fill="#DFDFDF" />
<rect x="25" y="14" width="1" height="1" fill="#DFDFDF" />
<rect x="26" y="14" width="1" height="1" fill="#DFDFDF" />
<rect x="27" y="14" width="1" height="1" fill="#DFDFDF" />
<rect x="29" y="14" width="1" height="1" fill="#DFDFDF" />
<rect x="30" y="14" width="1" height="1" fill="#DFDFDF" />
<rect x="33" y="14" width="1" height="1" fill="#DFDFDF" />
<rect x="34" y="14" width="1" height="1" fill="#DFDFDF" />
<rect x="36" y="14" width="1" height="1" fill="#DFDFDF" />
<rect x="37" y="14" width="1" height="1" fill="#DFDFDF" />
<rect x="38" y="14" width="1" height="1" fill="#DFDFDF" />
<rect x="39" y="14" width="1" height="1" fill="#DFDFDF" />
<rect x="40" y="14" width="1" height="1" fill="#DFDFDF" />
<rect x="41" y="14" width="1" height="1" fill="#DFDFDF" />
<rect x="8" y="15" width="1" height="1" fill="#DFDFDF" />
<rect x="9" y="15" width="1" height="1" fill="#DFDFDF" />
<rect x="10" y="15" width="1" height="1" fill="#393939" />
<rect x="11" y="15" width="1" height="1" fill="#393939" />
<rect x="12" y="15" width="1" height="1" fill="#DFDFDF" />
<rect x="13" y="15" width="1" height="1" fill="#DFDFDF" />
<rect x="15" y="15" width="1" height="1" fill="#DFDFDF" />
<rect x="16" y="15" width="1" height="1" fill="#DFDFDF" />
<rect x="17" y="15" width="1" height="1" fill="#393939" />
<rect x="18" y="15" width="1" height="1" fill="#393939" />
<rect x="19" y="15" width="1" height="1" fill="#DFDFDF" />
<rect x="20" y="15" width="1" height="1" fill="#DFDFDF" />
<rect x="22" y="15" width="1" height="1" fill="#DFDFDF" />
<rect x="23" y="15" width="1" height="1" fill="#DFDFDF" />
<rect x="24" y="15" width="1" height="1" fill="#393939" />
<rect x="25" y="15" width="1" height="1" fill="#393939" />
<rect x="26" y="15" width="1" height="1" fill="#393939" />
<rect x="27" y="15" width="1" height="1" fill="#393939" />
<rect x="29" y="15" width="1" height="1" fill="#DFDFDF" />
<rect x="30" y="15" width="1" height="1" fill="#DFDFDF" />
<rect x="33" y="15" width="1" height="1" fill="#DFDFDF" />
<rect x="34" y="15" width="1" height="1" fill="#DFDFDF" />
<rect x="36" y="15" width="1" height="1" fill="#DFDFDF" />
<rect x="37" y="15" width="1" height="1" fill="#DFDFDF" />
<rect x="38" y="15" width="1" height="1" fill="#393939" />
<rect x="39" y="15" width="1" height="1" fill="#393939" />
<rect x="40" y="15" width="1" height="1" fill="#DFDFDF" />
<rect x="41" y="15" width="1" height="1" fill="#DFDFDF" />
<rect x="8" y="16" width="1" height="1" fill="#DFDFDF" />
<rect x="9" y="16" width="1" height="1" fill="#DFDFDF" />
<rect x="12" y="16" width="1" height="1" fill="#DFDFDF" />
<rect x="13" y="16" width="1" height="1" fill="#DFDFDF" />
<rect x="15" y="16" width="1" height="1" fill="#DFDFDF" />
<rect x="16" y="16" width="1" height="1" fill="#DFDFDF" />
<rect x="19" y="16" width="1" height="1" fill="#DFDFDF" />
<rect x="20" y="16" width="1" height="1" fill="#DFDFDF" />
<rect x="22" y="16" width="1" height="1" fill="#DFDFDF" />
<rect x="23" y="16" width="1" height="1" fill="#DFDFDF" />
<rect x="29" y="16" width="1" height="1" fill="#DFDFDF" />
<rect x="30" y="16" width="1" height="1" fill="#DFDFDF" />
<rect x="31" y="16" width="1" height="1" fill="#DFDFDF" />
<rect x="33" y="16" width="1" height="1" fill="#DFDFDF" />
<rect x="34" y="16" width="1" height="1" fill="#DFDFDF" />
<rect x="36" y="16" width="1" height="1" fill="#DFDFDF" />
<rect x="37" y="16" width="1" height="1" fill="#DFDFDF" />
<rect x="40" y="16" width="1" height="1" fill="#DFDFDF" />
<rect x="41" y="16" width="1" height="1" fill="#DFDFDF" />
<rect x="8" y="17" width="1" height="1" fill="#DFDFDF" />
<rect x="9" y="17" width="1" height="1" fill="#DFDFDF" />
<rect x="10" y="17" width="1" height="1" fill="#DFDFDF" />
<rect x="11" y="17" width="1" height="1" fill="#DFDFDF" />
<rect x="12" y="17" width="1" height="1" fill="#DFDFDF" />
<rect x="13" y="17" width="1" height="1" fill="#DFDFDF" />
<rect x="15" y="17" width="1" height="1" fill="#DFDFDF" />
<rect x="16" y="17" width="1" height="1" fill="#DFDFDF" />
<rect x="17" y="17" width="1" height="1" fill="#DFDFDF" />
<rect x="18" y="17" width="1" height="1" fill="#DFDFDF" />
<rect x="19" y="17" width="1" height="1" fill="#DFDFDF" />
<rect x="20" y="17" width="1" height="1" fill="#DFDFDF" />
<rect x="22" y="17" width="1" height="1" fill="#DFDFDF" />
<rect x="23" y="17" width="1" height="1" fill="#DFDFDF" />
<rect x="24" y="17" width="1" height="1" fill="#DFDFDF" />
<rect x="25" y="17" width="1" height="1" fill="#DFDFDF" />
<rect x="26" y="17" width="1" height="1" fill="#DFDFDF" />
<rect x="29" y="17" width="1" height="1" fill="#DFDFDF" />
<rect x="30" y="17" width="1" height="1" fill="#DFDFDF" />
<rect x="31" y="17" width="1" height="1" fill="#DFDFDF" />
<rect x="33" y="17" width="1" height="1" fill="#DFDFDF" />
<rect x="34" y="17" width="1" height="1" fill="#DFDFDF" />
<rect x="36" y="17" width="1" height="1" fill="#DFDFDF" />
<rect x="37" y="17" width="1" height="1" fill="#DFDFDF" />
<rect x="38" y="17" width="1" height="1" fill="#DFDFDF" />
<rect x="39" y="17" width="1" height="1" fill="#DFDFDF" />
<rect x="40" y="17" width="1" height="1" fill="#DFDFDF" />
<rect x="41" y="17" width="1" height="1" fill="#DFDFDF" />
<rect x="8" y="18" width="1" height="1" fill="#DFDFDF" />
<rect x="9" y="18" width="1" height="1" fill="#DFDFDF" />
<rect x="10" y="18" width="1" height="1" fill="#DFDFDF" />
<rect x="11" y="18" width="1" height="1" fill="#DFDFDF" />
<rect x="12" y="18" width="1" height="1" fill="#DFDFDF" />
<rect x="13" y="18" width="1" height="1" fill="#DFDFDF" />
<rect x="15" y="18" width="1" height="1" fill="#DFDFDF" />
<rect x="16" y="18" width="1" height="1" fill="#DFDFDF" />
<rect x="17" y="18" width="1" height="1" fill="#DFDFDF" />
<rect x="18" y="18" width="1" height="1" fill="#DFDFDF" />
<rect x="19" y="18" width="1" height="1" fill="#DFDFDF" />
<rect x="20" y="18" width="1" height="1" fill="#393939" />
<rect x="22" y="18" width="1" height="1" fill="#DFDFDF" />
<rect x="23" y="18" width="1" height="1" fill="#DFDFDF" />
<rect x="24" y="18" width="1" height="1" fill="#DFDFDF" />
<rect x="25" y="18" width="1" height="1" fill="#DFDFDF" />
<rect x="26" y="18" width="1" height="1" fill="#DFDFDF" />
<rect x="29" y="18" width="1" height="1" fill="#DFDFDF" />
<rect x="30" y="18" width="1" height="1" fill="#DFDFDF" />
<rect x="31" y="18" width="1" height="1" fill="#DFDFDF" />
<rect x="32" y="18" width="1" height="1" fill="#DFDFDF" />
<rect x="33" y="18" width="1" height="1" fill="#DFDFDF" />
<rect x="34" y="18" width="1" height="1" fill="#DFDFDF" />
<rect x="36" y="18" width="1" height="1" fill="#DFDFDF" />
<rect x="37" y="18" width="1" height="1" fill="#DFDFDF" />
<rect x="38" y="18" width="1" height="1" fill="#E2E2E2" />
<rect x="39" y="18" width="1" height="1" fill="#DFDFDF" />
<rect x="40" y="18" width="1" height="1" fill="#DFDFDF" />
<rect x="41" y="18" width="1" height="1" fill="#DFDFDF" />
<rect x="8" y="19" width="1" height="1" fill="#DFDFDF" />
<rect x="9" y="19" width="1" height="1" fill="#DFDFDF" />
<rect x="10" y="19" width="1" height="1" fill="#393939" />
<rect x="11" y="19" width="1" height="1" fill="#393939" />
<rect x="12" y="19" width="1" height="1" fill="#DFDFDF" />
<rect x="13" y="19" width="1" height="1" fill="#DFDFDF" />
<rect x="15" y="19" width="1" height="1" fill="#DFDFDF" />
<rect x="16" y="19" width="1" height="1" fill="#DFDFDF" />
<rect x="17" y="19" width="1" height="1" fill="#393939" />
<rect x="18" y="19" width="1" height="1" fill="#DFDFDF" />
<rect x="19" y="19" width="1" height="1" fill="#DFDFDF" />
<rect x="22" y="19" width="1" height="1" fill="#DFDFDF" />
<rect x="23" y="19" width="1" height="1" fill="#DFDFDF" />
<rect x="24" y="19" width="1" height="1" fill="#393939" />
<rect x="25" y="19" width="1" height="1" fill="#393939" />
<rect x="26" y="19" width="1" height="1" fill="#393939" />
<rect x="29" y="19" width="1" height="1" fill="#DFDFDF" />
<rect x="30" y="19" width="1" height="1" fill="#DFDFDF" />
<rect x="31" y="19" width="1" height="1" fill="#393939" />
<rect x="32" y="19" width="1" height="1" fill="#DFDFDF" />
<rect x="33" y="19" width="1" height="1" fill="#DFDFDF" />
<rect x="34" y="19" width="1" height="1" fill="#DFDFDF" />
<rect x="36" y="19" width="1" height="1" fill="#DFDFDF" />
<rect x="37" y="19" width="1" height="1" fill="#DFDFDF" />
<rect x="38" y="19" width="1" height="1" fill="#393939" />
<rect x="39" y="19" width="1" height="1" fill="#393939" />
<rect x="40" y="19" width="1" height="1" fill="#DFDFDF" />
<rect x="41" y="19" width="1" height="1" fill="#DFDFDF" />
<rect x="8" y="20" width="1" height="1" fill="#DFDFDF" />
<rect x="9" y="20" width="1" height="1" fill="#DFDFDF" />
<rect x="12" y="20" width="1" height="1" fill="#DFDFDF" />
<rect x="13" y="20" width="1" height="1" fill="#DFDFDF" />
<rect x="15" y="20" width="1" height="1" fill="#DFDFDF" />
<rect x="16" y="20" width="1" height="1" fill="#DFDFDF" />
<rect x="18" y="20" width="1" height="1" fill="#393939" />
<rect x="19" y="20" width="1" height="1" fill="#DFDFDF" />
<rect x="20" y="20" width="1" height="1" fill="#DFDFDF" />
<rect x="22" y="20" width="1" height="1" fill="#DFDFDF" />
<rect x="23" y="20" width="1" height="1" fill="#DFDFDF" />
<rect x="29" y="20" width="1" height="1" fill="#DFDFDF" />
<rect x="30" y="20" width="1" height="1" fill="#DFDFDF" />
<rect x="32" y="20" width="1" height="1" fill="#DFDFDF" />
<rect x="33" y="20" width="1" height="1" fill="#DFDFDF" />
<rect x="34" y="20" width="1" height="1" fill="#DFDFDF" />
<rect x="36" y="20" width="1" height="1" fill="#DFDFDF" />
<rect x="37" y="20" width="1" height="1" fill="#DFDFDF" />
<rect x="40" y="20" width="1" height="1" fill="#DFDFDF" />
<rect x="41" y="20" width="1" height="1" fill="#DFDFDF" />
<rect x="8" y="21" width="1" height="1" fill="#DFDFDF" />
<rect x="9" y="21" width="1" height="1" fill="#DFDFDF" />
<rect x="12" y="21" width="1" height="1" fill="#DFDFDF" />
<rect x="13" y="21" width="1" height="1" fill="#DFDFDF" />
<rect x="15" y="21" width="1" height="1" fill="#DFDFDF" />
<rect x="16" y="21" width="1" height="1" fill="#DFDFDF" />
<rect x="19" y="21" width="1" height="1" fill="#DFDFDF" />
<rect x="20" y="21" width="1" height="1" fill="#DFDFDF" />
<rect x="22" y="21" width="1" height="1" fill="#DFDFDF" />
<rect x="23" y="21" width="1" height="1" fill="#DFDFDF" />
<rect x="29" y="21" width="1" height="1" fill="#DFDFDF" />
<rect x="30" y="21" width="1" height="1" fill="#DFDFDF" />
<rect x="32" y="21" width="1" height="1" fill="#393939" />
<rect x="33" y="21" width="1" height="1" fill="#DFDFDF" />
<rect x="34" y="21" width="1" height="1" fill="#DFDFDF" />
<rect x="36" y="21" width="1" height="1" fill="#DFDFDF" />
<rect x="37" y="21" width="1" height="1" fill="#DFDFDF" />
<rect x="40" y="21" width="1" height="1" fill="#DFDFDF" />
<rect x="41" y="21" width="1" height="1" fill="#DFDFDF" />
<rect x="8" y="22" width="1" height="1" fill="#DFDFDF" />
<rect x="9" y="22" width="1" height="1" fill="#DFDFDF" />
<rect x="12" y="22" width="1" height="1" fill="#DFDFDF" />
<rect x="13" y="22" width="1" height="1" fill="#DFDFDF" />
<rect x="15" y="22" width="1" height="1" fill="#DFDFDF" />
<rect x="16" y="22" width="1" height="1" fill="#DFDFDF" />
<rect x="19" y="22" width="1" height="1" fill="#DFDFDF" />
<rect x="20" y="22" width="1" height="1" fill="#DFDFDF" />
<rect x="22" y="22" width="1" height="1" fill="#DFDFDF" />
<rect x="23" y="22" width="1" height="1" fill="#DFDFDF" />
<rect x="24" y="22" width="1" height="1" fill="#DFDFDF" />
<rect x="25" y="22" width="1" height="1" fill="#DFDFDF" />
<rect x="26" y="22" width="1" height="1" fill="#DFDFDF" />
<rect x="27" y="22" width="1" height="1" fill="#DFDFDF" />
<rect x="29" y="22" width="1" height="1" fill="#DFDFDF" />
<rect x="30" y="22" width="1" height="1" fill="#DFDFDF" />
<rect x="33" y="22" width="1" height="1" fill="#DFDFDF" />
<rect x="34" y="22" width="1" height="1" fill="#DFDFDF" />
<rect x="36" y="22" width="1" height="1" fill="#DFDFDF" />
<rect x="37" y="22" width="1" height="1" fill="#DFDFDF" />
<rect x="40" y="22" width="1" height="1" fill="#DFDFDF" />
<rect x="41" y="22" width="1" height="1" fill="#DFDFDF" />
<rect x="8" y="23" width="1" height="1" fill="#DFDFDF" />
<rect x="9" y="23" width="1" height="1" fill="#DFDFDF" />
<rect x="12" y="23" width="1" height="1" fill="#DFDFDF" />
<rect x="13" y="23" width="1" height="1" fill="#DFDFDF" />
<rect x="15" y="23" width="1" height="1" fill="#DFDFDF" />
<rect x="16" y="23" width="1" height="1" fill="#DFDFDF" />
<rect x="19" y="23" width="1" height="1" fill="#DFDFDF" />
<rect x="20" y="23" width="1" height="1" fill="#DFDFDF" />
<rect x="22" y="23" width="1" height="1" fill="#DFDFDF" />
<rect x="23" y="23" width="1" height="1" fill="#DFDFDF" />
<rect x="24" y="23" width="1" height="1" fill="#DFDFDF" />
<rect x="25" y="23" width="1" height="1" fill="#DFDFDF" />
<rect x="26" y="23" width="1" height="1" fill="#DFDFDF" />
<rect x="27" y="23" width="1" height="1" fill="#DFDFDF" />
<rect x="29" y="23" width="1" height="1" fill="#DFDFDF" />
<rect x="30" y="23" width="1" height="1" fill="#DFDFDF" />
<rect x="33" y="23" width="1" height="1" fill="#DFDFDF" />
<rect x="34" y="23" width="1" height="1" fill="#DFDFDF" />
<rect x="36" y="23" width="1" height="1" fill="#DFDFDF" />
<rect x="37" y="23" width="1" height="1" fill="#DFDFDF" />
<rect x="40" y="23" width="1" height="1" fill="#DFDFDF" />
<rect x="41" y="23" width="1" height="1" fill="#DFDFDF" />
<rect x="8" y="24" width="1" height="1" fill="#393939" />
<rect x="9" y="24" width="1" height="1" fill="#393939" />
<rect x="12" y="24" width="1" height="1" fill="#393939" />
<rect x="13" y="24" width="1" height="1" fill="#393939" />
<rect x="15" y="24" width="1" height="1" fill="#393939" />
<rect x="16" y="24" width="1" height="1" fill="#393939" />
<rect x="19" y="24" width="1" height="1" fill="#393939" />
<rect x="20" y="24" width="1" height="1" fill="#393939" />
<rect x="22" y="24" width="1" height="1" fill="#393939" />
<rect x="23" y="24" width="1" height="1" fill="#393939" />
<rect x="24" y="24" width="1" height="1" fill="#393939" />
<rect x="25" y="24" width="1" height="1" fill="#393939" />
<rect x="26" y="24" width="1" height="1" fill="#393939" />
<rect x="27" y="24" width="1" height="1" fill="#393939" />
<rect x="29" y="24" width="1" height="1" fill="#393939" />
<rect x="30" y="24" width="1" height="1" fill="#393939" />
<rect x="33" y="24" width="1" height="1" fill="#393939" />
<rect x="34" y="24" width="1" height="1" fill="#393939" />
<rect x="36" y="24" width="1" height="1" fill="#393939" />
<rect x="37" y="24" width="1" height="1" fill="#393939" />
<rect x="40" y="24" width="1" height="1" fill="#393939" />
<rect x="41" y="24" width="1" height="1" fill="#393939" />
</svg>